<?xml version="1.0" encoding="utf-8"?>
<svg version="1.1" xmlns:xlink="http://www.w3.org/1999/xlink" width="60px" height="63px" xmlns="http://www.w3.org/2000/svg">
  <g transform="matrix(1 0 0 1 -67 -16 )">
    <path d="M 18.53515625 50.9619140625  C 19.51171875 49.9365234375  20 48.69921875  20 47.25  C 20 45.80078124999999  19.51171875 44.56347656249999  18.53515625 43.53808593750001  C 17.55859375 42.5126953125  16.380208333333343 42.00000000000001  15 42.00000000000001  C 13.619791666666671 42.00000000000001  12.44140625 42.5126953125  11.46484375 43.53808593750001  C 10.48828125 44.56347656249999  10 45.80078124999999  10 47.25  C 10 48.69921875  10.48828125 49.9365234375  11.46484375 50.9619140625  C 12.44140625 51.9873046875  13.619791666666671 52.5  15 52.5  C 16.380208333333343 52.5  17.55859375 51.9873046875  18.53515625 50.9619140625  Z M 33.359375 52.08984375  C 33.61979166666667 51.81640625  33.73697916666667 51.48828125  33.7109375 51.10546875  C 33.37239583333334 44.734375  31.074218750000004 39.3134765625  26.81640625 34.84277343749999  C 22.55859375 30.3720703125  17.395833333333343 27.958984375  11.328125 27.603515625  C 10.963541666666671 27.576171875  10.651041666666671 27.69921875  10.390625 27.97265625  C 10.130208333333343 28.24609375  10 28.560546875  10 28.916015625  L 10 34.16601562499999  C 10 34.521484375  10.110677083333329 34.822265625  10.33203125 35.068359375  C 10.553385416666671 35.314453125  10.833333333333343 35.451171875  11.171875 35.47851562500001  C 15.182291666666671 35.77929687499999  18.61979166666667 37.43359374999999  21.484375 40.44140624999999  C 24.348958333333343 43.44921875  25.92447916666667 47.05859375  26.2109375 51.26953125  C 26.23697916666667 51.625  26.3671875 51.9189453125  26.6015625 52.1513671875  C 26.8359375 52.3837890625  27.122395833333343 52.5  27.4609375 52.5  L 32.4609375 52.5  C 32.79947916666667 52.5  33.09895833333334 52.36328125  33.359375 52.08984375  Z M 48.359375 52.08984375  C 48.64583333333334 51.84375  48.76302083333334 51.529296875  48.7109375 51.146484375  C 48.58072916666667 46.935546875  47.8515625 42.868164062499986  46.5234375 38.9443359375  C 45.1953125 35.0205078125  43.37890625 31.4658203125  41.07421875 28.2802734375  C 38.76953125 25.094726562499993  36.10026041666667 22.2919921875  33.06640625 19.8720703125  C 30.032552083333325 17.4521484375  26.64713541666667 15.544921875  22.91015625 14.150390625  C 19.17317708333333 12.755859375  15.299479166666671 11.990234374999993  11.2890625 11.853515625  C 10.924479166666671 11.826171874999996  10.625 11.949218749999996  10.390625 12.22265625  C 10.130208333333343 12.496093749999993  10 12.810546874999996  10 13.166015625  L 10 18.416015625  C 10 18.771484374999993  10.1171875 19.072265625  10.3515625 19.318359375  C 10.5859375 19.564453125  10.872395833333329 19.701171875  11.2109375 19.728515625  C 16.5234375 19.919921875  21.4453125 21.4443359375  25.9765625 24.3017578125  C 30.507812499999996 27.1591796875  30.989583333333343 30.310546874999993  33.7109375 35.068359375  C 36.43229166666666 39.82617187499999  41.02864583333334 45.650390625  41.2109375 51.228515625  C 41.23697916666667 51.583984375  41.3671875 51.884765625  41.6015625 52.130859375  C 41.8359375 52.376953125  42.12239583333334 52.5  42.4609375 52.5  L 47.4609375 52.5  C 47.79947916666667 52.5  48.09895833333334 52.36328125  48.359375 52.08984375  Z M 56.69921875 3.4658203125000036  C 58.89973958333333 5.776367187499993  60 8.558593749999993  60 11.8125  L 60 51.1875  C 60 54.44140625  58.89973958333333 57.2236328125  56.69921875 59.5341796875  C 54.49869791666667 61.8447265625  51.84895833333334 63  48.75 63  L 11.25 63  C 8.151041666666671 63  5.501302083333329 61.8447265625  3.30078125 59.5341796875  C 1.1002604166666714 57.2236328125  0 54.44140625  0 51.1875  L 0 11.8125  C 0 8.558593749999993  1.1002604166666714 5.776367187499993  3.30078125 3.4658203125000036  C 5.501302083333329 1.1552734374999964  8.151041666666671 0  11.25 0  L 48.75 0  C 51.84895833333334 0  54.49869791666667 1.1552734374999964  56.69921875 3.4658203125000036  Z " fill-rule="nonzero" fill="#1891ff" stroke="none" transform="matrix(1 0 0 1 67 16 )" />
  </g>
</svg>